<?xml version="1.0" encoding="utf-8"?>
<!-- Generator: Adobe Illustrator 13.0.0, SVG Export Plug-In . SVG Version: 6.00 Build 14948)  -->
<!DOCTYPE svg PUBLIC "-//W3C//DTD SVG 1.1//EN" "http://www.w3.org/Graphics/SVG/1.1/DTD/svg11.dtd">
<svg version="1.1" id="Layer_1" xmlns="http://www.w3.org/2000/svg" xmlns:xlink="http://www.w3.org/1999/xlink" x="0px" y="0px"
	 width="61.192px" height="48.635px" viewBox="0 0 61.192 48.635" enable-background="new 0 0 61.192 48.635" xml:space="preserve">
<g>
	<g>
		
			<line fill="none" stroke="#2F302F" stroke-width="2" stroke-linecap="round" stroke-linejoin="round" x1="60.124" y1="31.803" x2="60.124" y2="26.616"/>
		
			<line fill="none" stroke="#2F302F" stroke-width="2" stroke-linecap="round" stroke-linejoin="round" x1="60.124" y1="22.178" x2="60.124" y2="16.99"/>
		
			<line fill="none" stroke="#2F302F" stroke-width="2" stroke-linecap="round" stroke-linejoin="round" x1="48.386" y1="1" x2="43.198" y2="1"/>
		
			<line fill="none" stroke="#2F302F" stroke-width="2" stroke-linecap="round" stroke-linejoin="round" x1="38.218" y1="1" x2="33.03" y2="1"/>
		
			<line fill="none" stroke="#2F302F" stroke-width="2" stroke-linecap="round" stroke-linejoin="round" x1="28.051" y1="1" x2="22.864" y2="1"/>
		
			<line fill="none" stroke="#2F302F" stroke-width="2" stroke-linecap="round" stroke-linejoin="round" x1="17.885" y1="1" x2="12.697" y2="1"/>
		
			<line fill="none" stroke="#2F302F" stroke-width="2" stroke-linecap="round" stroke-linejoin="round" x1="48.386" y1="47.635" x2="43.198" y2="47.635"/>
		
			<line fill="none" stroke="#2F302F" stroke-width="2" stroke-linecap="round" stroke-linejoin="round" x1="38.218" y1="47.635" x2="33.03" y2="47.635"/>
		
			<line fill="none" stroke="#2F302F" stroke-width="2" stroke-linecap="round" stroke-linejoin="round" x1="28.051" y1="47.635" x2="22.864" y2="47.635"/>
		
			<line fill="none" stroke="#2F302F" stroke-width="2" stroke-linecap="round" stroke-linejoin="round" x1="17.885" y1="47.635" x2="12.697" y2="47.635"/>
		
			<line fill="none" stroke="#2F302F" stroke-width="2" stroke-linecap="round" stroke-linejoin="round" x1="60.124" y1="12.553" x2="60.124" y2="7.365"/>
		
			<line fill="none" stroke="#2F302F" stroke-width="2" stroke-linecap="round" stroke-linejoin="round" x1="1" y1="31.802" x2="1" y2="26.615"/>
		
			<line fill="none" stroke="#2F302F" stroke-width="2" stroke-linecap="round" stroke-linejoin="round" x1="1" y1="22.178" x2="1" y2="16.99"/>
		
			<line fill="none" stroke="#2F302F" stroke-width="2" stroke-linecap="round" stroke-linejoin="round" x1="1" y1="12.553" x2="1" y2="7.365"/>
		<path fill="none" stroke="#2F302F" stroke-width="2" stroke-linecap="round" stroke-linejoin="round" d="M53.999,47.177
			c0,0,2.375,0.25,4.125-2.25"/>
		<path fill="none" stroke="#2F302F" stroke-width="2" stroke-linecap="round" stroke-linejoin="round" d="M59.749,41.366
			c0,0,0.5-2.25,0.438-5.25"/>
		<path fill="none" stroke="#2F302F" stroke-width="2" stroke-linecap="round" stroke-linejoin="round" d="M7.193,47.177
			c0,0-2.375,0.25-4.125-2.25"/>
		<path fill="none" stroke="#2F302F" stroke-width="2" stroke-linecap="round" stroke-linejoin="round" d="M53.999,1.25
			c0,0,2.375-0.25,4.125,2.25"/>
		<path fill="none" stroke="#2F302F" stroke-width="2" stroke-linecap="round" stroke-linejoin="round" d="M7.193,1.25
			c0,0-2.375-0.25-4.125,2.25"/>
		<path fill="none" stroke="#2F302F" stroke-width="2" stroke-linecap="round" stroke-linejoin="round" d="M1.443,41.365
			c0,0-0.5-2.25-0.438-5.25"/>
	</g>
	<text transform="matrix(1 0 0 1 23.0967 29.1587)" fill="#2F302F" font-family="'Arial-BoldMT'" font-size="6">Node</text>
	<g>
		<polyline fill="none" stroke="#30312F" stroke-width="0.5" stroke-linecap="round" stroke-linejoin="round" points="12.344,19.18 
			9.094,20.555 12.344,21.946 		"/>
		<polyline fill="none" stroke="#30312F" stroke-width="0.5" stroke-linecap="round" stroke-linejoin="round" points="15.563,19.13 
			12.313,20.505 15.563,21.896 		"/>
	</g>
	<g>
		<polyline fill="none" stroke="#30312F" stroke-width="0.5" stroke-linecap="round" stroke-linejoin="round" points="48.849,19.13 
			52.099,20.505 48.849,21.896 		"/>
		<polyline fill="none" stroke="#30312F" stroke-width="0.5" stroke-linecap="round" stroke-linejoin="round" points="45.63,19.18 
			48.88,20.555 45.63,21.946 		"/>
	</g>
	<g>
		<text transform="matrix(1 0 0 1 17.2578 22.3672)" fill="#2F302F" font-family="'ArialMT'" font-size="6">structured</text>
	</g>
</g>
<g id="connector">
	<path fill="#FFFFFF" stroke="#000000" d="M2.747,3.682"/>
	<path fill="#FFFFFF" stroke="#000000" d="M4.747,1.995"/>
	<path fill="#FFFFFF" stroke="#000000" d="M7.622,1.307"/>
	<path fill="#FFFFFF" stroke="#000000" d="M12.31,1.057"/>
	<path fill="#FFFFFF" stroke="#000000" d="M17.935,1.057"/>
	<path fill="#FFFFFF" stroke="#000000" d="M22.872,1.057"/>
	<path fill="#FFFFFF" stroke="#000000" d="M28.31,1.057"/>
	<path fill="#FFFFFF" stroke="#000000" d="M32.872,1.12"/>
	<path fill="#FFFFFF" stroke="#000000" d="M38.622,1.057"/>
	<path fill="#FFFFFF" stroke="#000000" d="M42.935,0.995"/>
	<path fill="#FFFFFF" stroke="#000000" d="M48.747,1.12"/>
	<path fill="#FFFFFF" stroke="#000000" d="M53.747,1.307"/>
	<path fill="#FFFFFF" stroke="#000000" d="M56.435,1.807"/>
	<path fill="#FFFFFF" stroke="#000000" d="M58.372,3.62"/>
	<path fill="#FFFFFF" stroke="#000000" d="M60.06,7.432"/>
	<path fill="#FFFFFF" stroke="#000000" d="M60.122,12.62"/>
	<path fill="#FFFFFF" stroke="#000000" d="M60.122,16.932"/>
	<path fill="#FFFFFF" stroke="#000000" d="M60.122,22.37"/>
	<path fill="#FFFFFF" stroke="#000000" d="M60.122,26.495"/>
	<path fill="#FFFFFF" stroke="#000000" d="M60.185,31.932"/>
	<path fill="#FFFFFF" stroke="#000000" d="M60.247,36.307"/>
	<path fill="#FFFFFF" stroke="#000000" d="M60.122,38.995"/>
	<path fill="#FFFFFF" stroke="#000000" d="M59.685,41.682"/>
	<path fill="#FFFFFF" stroke="#000000" d="M58.247,44.87"/>
	<path fill="#FFFFFF" stroke="#000000" d="M56.247,46.682"/>
	<path fill="#FFFFFF" stroke="#000000" d="M53.685,47.307"/>
	<path fill="#FFFFFF" stroke="#000000" d="M48.685,47.745"/>
	<path fill="#FFFFFF" stroke="#000000" d="M42.997,47.745"/>
	<path fill="#FFFFFF" stroke="#000000" d="M38.622,47.807"/>
	<path fill="#FFFFFF" stroke="#000000" d="M32.685,47.557"/>
	<path fill="#FFFFFF" stroke="#000000" d="M28.372,47.745"/>
	<path fill="#FFFFFF" stroke="#000000" d="M22.747,47.682"/>
	<path fill="#FFFFFF" stroke="#000000" d="M18.122,47.682"/>
	<path fill="#FFFFFF" stroke="#000000" d="M12.497,47.807"/>
	<path fill="#FFFFFF" stroke="#000000" d="M7.372,47.245"/>
	<path fill="#FFFFFF" stroke="#000000" d="M4.685,46.495"/>
	<path fill="#FFFFFF" stroke="#000000" d="M2.872,44.682"/>
	<path fill="#FFFFFF" stroke="#000000" d="M1.685,41.682"/>
	<path fill="#FFFFFF" stroke="#000000" d="M0.935,38.557"/>
	<path fill="#FFFFFF" stroke="#000000" d="M0.935,35.807"/>
	<path fill="#FFFFFF" stroke="#000000" d="M0.935,31.807"/>
	<path fill="#FFFFFF" stroke="#000000" d="M0.935,26.432"/>
	<path fill="#FFFFFF" stroke="#000000" d="M0.997,22.37"/>
	<path fill="#FFFFFF" stroke="#000000" d="M0.997,16.807"/>
	<path fill="#FFFFFF" stroke="#000000" d="M0.935,12.62"/>
	<path fill="#FFFFFF" stroke="#000000" d="M0.872,7.307"/>
</g>
</svg>
