<?xml version="1.0" encoding="utf-8"?>
<!-- Generator: Adobe Illustrator 17.0.0, SVG Export Plug-In . SVG Version: 6.00 Build 0)  -->
<!DOCTYPE svg PUBLIC "-//W3C//DTD SVG 1.1//EN" "http://www.w3.org/Graphics/SVG/1.1/DTD/svg11.dtd">
<svg version="1.1" id="Layer_1" xmlns="http://www.w3.org/2000/svg" xmlns:xlink="http://www.w3.org/1999/xlink" x="0px" y="0px"
	 width="63.397px" height="63.126px" viewBox="0 0 63.397 63.126" enable-background="new 0 0 63.397 63.126" xml:space="preserve">
<ellipse fill="none" stroke="#31312F" stroke-width="2" stroke-linecap="round" stroke-linejoin="round" cx="31.883" cy="10.494" rx="30.303" ry="9.495"/>
<path fill="none" stroke="#31312F" stroke-width="2" stroke-linecap="round" stroke-linejoin="round" d="M62.394,16.619
	c0,5.245-13.593,9.495-30.364,9.495S1.061,21.755,1.061,16.51"/>
<path fill="none" stroke="#31312F" stroke-width="2" stroke-linecap="round" stroke-linejoin="round" d="M62.394,22.244
	c0,5.245-13.593,9.495-30.364,9.495S1.061,27.38,1.061,22.135"/>
<path fill="none" stroke="#31312F" stroke-width="2" stroke-linecap="round" stroke-linejoin="round" d="M62.397,11.92
	c0-0.748-0.148-1.463-0.408-2.127c0.055,0.232,0.092,0.467,0.092,0.701c0,5.245-13.568,9.495-30.303,9.495
	s-30.303-4.25-30.303-9.495c0-1.359,0.921-2.654,2.57-3.824C2.208,7.807,1,9.732,1,11.92v40.902c0,0.085,0.047,0.167,0.117,0.248
	c0.948,4.997,14.731,9.056,30.913,9.056c16.465,0,29.856-4.097,30.341-9.209c0.011-0.032,0.026-0.063,0.026-0.095V11.92z"/>
<g id="connector">
	<path fill="none" stroke="#31312F" stroke-width="2" stroke-linecap="round" stroke-linejoin="round" d="M1.363,11.094"/>
	<path fill="none" stroke="#31312F" stroke-width="2" stroke-linecap="round" stroke-linejoin="round" d="M31.113,0.844"/>
	<path fill="none" stroke="#31312F" stroke-width="2" stroke-linecap="round" stroke-linejoin="round" d="M62.113,10.469"/>
	<path fill="none" stroke="#31312F" stroke-width="2" stroke-linecap="round" stroke-linejoin="round" d="M31.238,19.969"/>
	<path fill="none" stroke="#31312F" stroke-width="2" stroke-linecap="round" stroke-linejoin="round" d="M0.863,17.469"/>
	<path fill="none" stroke="#31312F" stroke-width="2" stroke-linecap="round" stroke-linejoin="round" d="M62.113,18.219"/>
	<path fill="none" stroke="#31312F" stroke-width="2" stroke-linecap="round" stroke-linejoin="round" d="M62.238,24.094"/>
	<path fill="none" stroke="#31312F" stroke-width="2" stroke-linecap="round" stroke-linejoin="round" d="M31.238,31.844"/>
	<path fill="none" stroke="#31312F" stroke-width="2" stroke-linecap="round" stroke-linejoin="round" d="M1.113,23.344"/>
	<path fill="none" stroke="#31312F" stroke-width="2" stroke-linecap="round" stroke-linejoin="round" d="M0.988,34.469"/>
	<path fill="none" stroke="#31312F" stroke-width="2" stroke-linecap="round" stroke-linejoin="round" d="M0.988,52.594"/>
	<path fill="none" stroke="#31312F" stroke-width="2" stroke-linecap="round" stroke-linejoin="round" d="M2.613,55.969"/>
	<path fill="none" stroke="#31312F" stroke-width="2" stroke-linecap="round" stroke-linejoin="round" d="M31.363,62.344"/>
	<path fill="none" stroke="#31312F" stroke-width="2" stroke-linecap="round" stroke-linejoin="round" d="M60.238,56.344"/>
	<path fill="none" stroke="#31312F" stroke-width="2" stroke-linecap="round" stroke-linejoin="round" d="M62.488,52.469"/>
	<path fill="none" stroke="#31312F" stroke-width="2" stroke-linecap="round" stroke-linejoin="round" d="M62.488,39.219"/>
	<path fill="none" stroke="#31312F" stroke-width="2" stroke-linecap="round" stroke-linejoin="round" d="M30.863,26.219"/>
</g>
</svg>
