<?xml version="1.0" encoding="utf-8"?>
<!-- Generator: Adobe Illustrator 13.0.0, SVG Export Plug-In . SVG Version: 6.00 Build 14948)  -->
<!DOCTYPE svg PUBLIC "-//W3C//DTD SVG 1.1//EN" "http://www.w3.org/Graphics/SVG/1.1/DTD/svg11.dtd">
<svg version="1.1" id="Layer_1" xmlns="http://www.w3.org/2000/svg" xmlns:xlink="http://www.w3.org/1999/xlink" x="0px" y="0px"
	 width="63.572px" height="52.552px" viewBox="0 0 63.572 52.552" enable-background="new 0 0 63.572 52.552" xml:space="preserve">
<path fill="none" stroke="#30312F" stroke-width="2" stroke-linecap="round" stroke-linejoin="round" d="M61.75,5.526
	c0,0-17.855-11.083-32.222,1.437c0,0-15.981,10.062-27.824-1.731C1.467,4.996,1.233,4.752,1,4.5l0.616,41.869
	c0,0,17.855,12.93,34.479-2.054c0,0,12.314-8.621,26.477,2.258L61.75,5.526z"/>
<g id="connector">
	<path fill="none" stroke="#30312F" stroke-width="2" stroke-linecap="round" stroke-linejoin="round" d="M1.181,5.833"/>
	<path fill="none" stroke="#30312F" stroke-width="2" stroke-linecap="round" stroke-linejoin="round" d="M1.292,26.5"/>
	<path fill="none" stroke="#30312F" stroke-width="2" stroke-linecap="round" stroke-linejoin="round" d="M1.736,46.389"/>
	<path fill="none" stroke="#30312F" stroke-width="2" stroke-linecap="round" stroke-linejoin="round" d="M17.847,51.722"/>
	<path fill="none" stroke="#30312F" stroke-width="2" stroke-linecap="round" stroke-linejoin="round" d="M16.958,10.945"/>
	<path fill="none" stroke="#30312F" stroke-width="2" stroke-linecap="round" stroke-linejoin="round" d="M29.514,7.167"/>
	<path fill="none" stroke="#30312F" stroke-width="2" stroke-linecap="round" stroke-linejoin="round" d="M36.181,44.5"/>
	<path fill="none" stroke="#30312F" stroke-width="2" stroke-linecap="round" stroke-linejoin="round" d="M44.736,0.945"/>
	<path fill="none" stroke="#30312F" stroke-width="2" stroke-linecap="round" stroke-linejoin="round" d="M47.736,41.056"/>
	<path fill="none" stroke="#30312F" stroke-width="2" stroke-linecap="round" stroke-linejoin="round" d="M62.625,46.056"/>
	<path fill="none" stroke="#30312F" stroke-width="2" stroke-linecap="round" stroke-linejoin="round" d="M62.07,24.389"/>
	<path fill="none" stroke="#30312F" stroke-width="2" stroke-linecap="round" stroke-linejoin="round" d="M61.514,5.611"/>
</g>
</svg>
