<?xml version="1.0" encoding="utf-8"?>
<!-- Generator: Adobe Illustrator 13.0.0, SVG Export Plug-In . SVG Version: 6.00 Build 14948)  -->
<!DOCTYPE svg PUBLIC "-//W3C//DTD SVG 1.1//EN" "http://www.w3.org/Graphics/SVG/1.1/DTD/svg11.dtd">
<svg version="1.1" id="Layer_1" xmlns="http://www.w3.org/2000/svg" xmlns:xlink="http://www.w3.org/1999/xlink" x="0px" y="0px"
	 width="63.46px" height="68.044px" viewBox="0 0 63.46 68.044" enable-background="new 0 0 63.46 68.044" xml:space="preserve">
<g>
	<g>
		<path fill="#31312F" d="M61.46,34.839L31.743,66.044h-0.028L2,34.839H61.46 M61.46,32.839H2c-0.8,0-1.523,0.477-1.838,1.212
			c-0.315,0.735-0.162,1.588,0.39,2.167l29.715,31.205c0.377,0.396,0.915,0.621,1.462,0.621s1.085-0.225,1.462-0.621l29.717-31.205
			c0.552-0.579,0.705-1.432,0.39-2.167C62.983,33.315,62.26,32.839,61.46,32.839L61.46,32.839z"/>
	</g>
</g>
<g>
	<g>
		<path fill="#31312F" d="M31.744,2L61.46,33.205H2L31.717,2H31.744 M31.73,0c-0.547,0-1.084,0.224-1.462,0.621L0.552,31.826
			c-0.552,0.58-0.705,1.432-0.39,2.167C0.477,34.729,1.2,35.205,2,35.205h59.46c0.8,0,1.523-0.477,1.838-1.212
			c0.315-0.735,0.162-1.588-0.39-2.167L33.192,0.621C32.815,0.224,32.278,0,31.73,0L31.73,0z"/>
	</g>
</g>
<g id="connector">
	<path fill="none" stroke="#31312F" stroke-width="2" stroke-linecap="round" stroke-linejoin="round" d="M31.674,1.227"/>
	<path fill="none" stroke="#31312F" stroke-width="2" stroke-linecap="round" stroke-linejoin="round" d="M47.119,16.449"/>
	<path fill="none" stroke="#31312F" stroke-width="2" stroke-linecap="round" stroke-linejoin="round" d="M62.341,33.004"/>
	<path fill="none" stroke="#31312F" stroke-width="2" stroke-linecap="round" stroke-linejoin="round" d="M62.229,35.227"/>
	<path fill="none" stroke="#31312F" stroke-width="2" stroke-linecap="round" stroke-linejoin="round" d="M30.896,34.116"/>
	<path fill="none" stroke="#31312F" stroke-width="2" stroke-linecap="round" stroke-linejoin="round" d="M46.452,52.449"/>
	<path fill="none" stroke="#31312F" stroke-width="2" stroke-linecap="round" stroke-linejoin="round" d="M31.674,67.227"/>
	<path fill="none" stroke="#31312F" stroke-width="2" stroke-linecap="round" stroke-linejoin="round" d="M15.896,51.005"/>
	<path fill="none" stroke="#31312F" stroke-width="2" stroke-linecap="round" stroke-linejoin="round" d="M0.786,35.116"/>
	<path fill="none" stroke="#31312F" stroke-width="2" stroke-linecap="round" stroke-linejoin="round" d="M1.23,33.227"/>
	<path fill="none" stroke="#31312F" stroke-width="2" stroke-linecap="round" stroke-linejoin="round" d="M15.341,17.671"/>
</g>
</svg>
