<?xml version="1.0" encoding="utf-8"?>
<!-- Generator: Adobe Illustrator 13.0.0, SVG Export Plug-In . SVG Version: 6.00 Build 14948)  -->
<!DOCTYPE svg PUBLIC "-//W3C//DTD SVG 1.1//EN" "http://www.w3.org/Graphics/SVG/1.1/DTD/svg11.dtd">
<svg version="1.1" id="Layer_1" xmlns="http://www.w3.org/2000/svg" xmlns:xlink="http://www.w3.org/1999/xlink" x="0px" y="0px"
	 width="68.332px" height="15.634px" viewBox="0 0 68.332 15.634" enable-background="new 0 0 68.332 15.634" xml:space="preserve">
<line fill="none" stroke="#31312F" stroke-width="2" stroke-linecap="round" stroke-linejoin="round" x1="60.688" y1="7.884" x2="66.105" y2="7.884"/>
<line fill="none" stroke="#31312F" stroke-width="2" stroke-linecap="round" stroke-linejoin="round" x1="53.267" y1="7.884" x2="57.684" y2="7.884"/>
<line fill="none" stroke="#31312F" stroke-width="2" stroke-linecap="round" stroke-linejoin="round" x1="45.86" y1="7.884" x2="50.277" y2="7.884"/>
<line fill="none" stroke="#31312F" stroke-width="2" stroke-linecap="round" stroke-linejoin="round" x1="8.406" y1="7.884" x2="12.823" y2="7.884"/>
<line fill="none" stroke="#31312F" stroke-width="2" stroke-linecap="round" stroke-linejoin="round" x1="1" y1="7.884" x2="5.417" y2="7.884"/>
<path fill="none" stroke="#30302F" stroke-width="2" stroke-linecap="round" stroke-linejoin="round" d="M57.229,14.634
	l10.103-6.818L57.229,1"/>
<g>
	<text transform="matrix(1 0 0 1 16.9468 9.9487)" fill="#2F302F" font-family="'ArialMT'" font-size="6">&lt;&lt;bind&gt;&gt;</text>
</g>
<g id="connector">
	<path fill="#FFFFFF" stroke="#000000" d="M0.983,7.857"/>
	<path fill="#FFFFFF" stroke="#000000" d="M5.566,7.857"/>
	<path fill="#FFFFFF" stroke="#000000" d="M8.4,7.857"/>
	<path fill="#FFFFFF" stroke="#000000" d="M13.066,7.94"/>
	<path fill="#FFFFFF" stroke="#000000" d="M45.816,7.94"/>
	<path fill="#FFFFFF" stroke="#000000" d="M50.4,7.857"/>
	<path fill="#FFFFFF" stroke="#000000" d="M53.15,7.774"/>
	<path fill="#FFFFFF" stroke="#000000" d="M57.983,7.857"/>
	<path fill="#FFFFFF" stroke="#000000" d="M60.566,7.857"/>
	<path fill="#FFFFFF" stroke="#000000" d="M66.483,7.774"/>
	<path fill="#FFFFFF" stroke="#000000" d="M57.15,1.024"/>
	<path fill="#FFFFFF" stroke="#000000" d="M57.316,14.774"/>
</g>
</svg>
