<?xml version="1.0" encoding="utf-8"?>
<!-- Generator: Adobe Illustrator 13.0.0, SVG Export Plug-In . SVG Version: 6.00 Build 14948)  -->
<!DOCTYPE svg PUBLIC "-//W3C//DTD SVG 1.1//EN" "http://www.w3.org/Graphics/SVG/1.1/DTD/svg11.dtd">
<svg version="1.1" id="Layer_1" xmlns="http://www.w3.org/2000/svg" xmlns:xlink="http://www.w3.org/1999/xlink" x="0px" y="0px"
	 width="68.394px" height="15.635px" viewBox="0 0 68.394 15.635" enable-background="new 0 0 68.394 15.635" xml:space="preserve">
<g>
	
		<line fill="none" stroke="#31312F" stroke-width="2" stroke-linecap="round" stroke-linejoin="round" x1="60.75" y1="7.885" x2="66.167" y2="7.885"/>
	
		<line fill="none" stroke="#31312F" stroke-width="2" stroke-linecap="round" stroke-linejoin="round" x1="53.328" y1="7.885" x2="57.745" y2="7.885"/>
	
		<line fill="none" stroke="#31312F" stroke-width="2" stroke-linecap="round" stroke-linejoin="round" x1="45.922" y1="7.885" x2="50.339" y2="7.885"/>
	
		<line fill="none" stroke="#31312F" stroke-width="2" stroke-linecap="round" stroke-linejoin="round" x1="8.406" y1="7.885" x2="12.823" y2="7.885"/>
	
		<line fill="none" stroke="#31312F" stroke-width="2" stroke-linecap="round" stroke-linejoin="round" x1="1" y1="7.885" x2="5.417" y2="7.885"/>
	<path fill="none" stroke="#30302F" stroke-width="2" stroke-linecap="round" stroke-linejoin="round" d="M57.291,14.635
		l10.103-6.818L57.291,1"/>
	<g>
		<text transform="matrix(1 0 0 1 15.6992 9.5059)" fill="#2F302F" font-family="'ArialMT'" font-size="6">&lt;&lt;uses&gt;&gt;</text>
	</g>
</g>
<g id="connector">
	<path fill="#FFFFFF" stroke="#000000" d="M0.898,8.093"/>
	<path fill="#FFFFFF" stroke="#000000" d="M5.342,7.981"/>
	<path fill="#FFFFFF" stroke="#000000" d="M8.009,7.871"/>
	<path fill="#FFFFFF" stroke="#000000" d="M12.787,7.871"/>
	<path fill="#FFFFFF" stroke="#000000" d="M45.787,7.871"/>
	<path fill="#FFFFFF" stroke="#000000" d="M50.453,7.981"/>
	<path fill="#FFFFFF" stroke="#000000" d="M53.453,8.204"/>
	<path fill="#FFFFFF" stroke="#000000" d="M57.787,7.981"/>
	<path fill="#FFFFFF" stroke="#000000" d="M60.676,7.981"/>
	<path fill="#FFFFFF" stroke="#000000" d="M66.231,7.871"/>
	<path fill="#FFFFFF" stroke="#000000" d="M57.564,14.426"/>
	<path fill="#FFFFFF" stroke="#000000" d="M57.564,1.315"/>
</g>
</svg>
