<?xml version="1.0" encoding="utf-8"?>
<!-- Generator: Adobe Illustrator 17.0.0, SVG Export Plug-In . SVG Version: 6.00 Build 0)  -->
<!DOCTYPE svg PUBLIC "-//W3C//DTD SVG 1.1//EN" "http://www.w3.org/Graphics/SVG/1.1/DTD/svg11.dtd">
<svg version="1.1" id="Layer_1" xmlns="http://www.w3.org/2000/svg" xmlns:xlink="http://www.w3.org/1999/xlink" x="0px" y="0px"
	 width="119.726px" height="144.334px" viewBox="0 0 119.726 144.334" enable-background="new 0 0 119.726 144.334"
	 xml:space="preserve">
<path fill="none" stroke="#30302F" stroke-linecap="round" stroke-linejoin="round" d="M80.097,67.108
	c9.465-6.497,16.853-17.7,16.853-30.049C96.95,17.144,80.808,1,60.893,1S24.834,17.144,24.834,37.059
	c0,13.185,5.138,23.642,15.702,29.927l0.098,0.098C-4.471,96.453,1.232,144.185,1.232,144.185l118.009,0.525
	C122.734,99.812,83.795,69.951,80.097,67.108z"/>
<g id="connector">
	<path fill="none" stroke="#30302F" stroke-linecap="round" stroke-linejoin="round" d="M60.423,1.092"/>
	<path fill="none" stroke="#30302F" stroke-linecap="round" stroke-linejoin="round" d="M25.134,31.456"/>
	<path fill="none" stroke="#30302F" stroke-linecap="round" stroke-linejoin="round" d="M38.812,67.018"/>
	<path fill="none" stroke="#30302F" stroke-linecap="round" stroke-linejoin="round" d="M10.089,101.213"/>
	<path fill="none" stroke="#30302F" stroke-linecap="round" stroke-linejoin="round" d="M1.882,143.887"/>
	<path fill="none" stroke="#30302F" stroke-linecap="round" stroke-linejoin="round" d="M58.781,144.161"/>
	<path fill="none" stroke="#30302F" stroke-linecap="round" stroke-linejoin="round" d="M118.963,143.887"/>
	<path fill="none" stroke="#30302F" stroke-linecap="round" stroke-linejoin="round" d="M111.304,104.495"/>
	<path fill="none" stroke="#30302F" stroke-linecap="round" stroke-linejoin="round" d="M80.939,67.292"/>
	<path fill="none" stroke="#30302F" stroke-linecap="round" stroke-linejoin="round" d="M97.079,34.466"/>
</g>
</svg>
