<?xml version="1.0" encoding="utf-8"?>
<!-- Generator: Adobe Illustrator 17.0.0, SVG Export Plug-In . SVG Version: 6.00 Build 0)  -->
<!DOCTYPE svg PUBLIC "-//W3C//DTD SVG 1.1//EN" "http://www.w3.org/Graphics/SVG/1.1/DTD/svg11.dtd">
<svg version="1.1" id="Layer_1" xmlns="http://www.w3.org/2000/svg" xmlns:xlink="http://www.w3.org/1999/xlink" x="0px" y="0px"
	 width="161.524px" height="98.319px" viewBox="0 0 161.524 98.319" enable-background="new 0 0 161.524 98.319"
	 xml:space="preserve">
<path fill="none" stroke="#30302F" stroke-linecap="round" stroke-linejoin="round" d="M139.681,53.417h-4.667
	c1.478-3.686,2.311-7.704,2.311-11.93c0-17.569-14.095-31.815-31.486-31.815c-7.234,0-13.875,2.493-19.193,6.631
	C82.55,7.282,73.552,1,63.081,1C48.754,1,37.138,12.735,37.138,27.21c0,0.35,0.039,0.682,0.051,1.027
	c-0.663-0.076-1.338-0.125-2.018-0.125c-9.98,0-18.07,8.174-18.07,18.256c0,2.669,0.578,5.194,1.597,7.482
	C8.611,55.857,1,64.837,1,75.621v0.056c0,12.26,9.837,22.204,21.978,22.204h116.704c12.138,0,21.975-9.943,21.975-22.204v-0.056
	C161.656,63.363,151.819,53.417,139.681,53.417z"/>
<g id="connector">
	<path fill="none" stroke="#30302F" stroke-linecap="round" stroke-linejoin="round" d="M53.024,3.266"/>
	<path fill="none" stroke="#30302F" stroke-linecap="round" stroke-linejoin="round" d="M36.894,27.709"/>
	<path fill="none" stroke="#30302F" stroke-linecap="round" stroke-linejoin="round" d="M21.303,34.499"/>
	<path fill="none" stroke="#30302F" stroke-linecap="round" stroke-linejoin="round" d="M18.076,53.508"/>
	<path fill="none" stroke="#30302F" stroke-linecap="round" stroke-linejoin="round" d="M1.14,74.692"/>
	<path fill="none" stroke="#30302F" stroke-linecap="round" stroke-linejoin="round" d="M19.958,98.05"/>
	<path fill="none" stroke="#30302F" stroke-linecap="round" stroke-linejoin="round" d="M81.248,98.319"/>
	<path fill="none" stroke="#30302F" stroke-linecap="round" stroke-linejoin="round" d="M143.347,97.233"/>
	<path fill="none" stroke="#30302F" stroke-linecap="round" stroke-linejoin="round" d="M161.625,74.692"/>
	<path fill="none" stroke="#30302F" stroke-linecap="round" stroke-linejoin="round" d="M135.549,52.694"/>
	<path fill="none" stroke="#30302F" stroke-linecap="round" stroke-linejoin="round" d="M123.721,15.216"/>
	<path fill="none" stroke="#30302F" stroke-linecap="round" stroke-linejoin="round" d="M87.161,15.216"/>
</g>
</svg>
